# xmcd
#
# Track frame offsets:
# 150
# 20079
# 30970
# 39662
# 60208
#
# Disc length: 1166 seconds
#
# Revision: 1
# Processed by: cddbd v1.5.2PL0 Copyright (c) Steve Scherf et al.
# Submitted via: CedeCatalogueitor 2.6.0.6 http://personales.ya.com/cdcatalogueitor
#
DISCID=31048c05
DTITLE=Silvia Coral Y Los Arrecifes - Silvia Coral Y Los Arrecifes
DYEAR=1900
DGENRE=
TTITLE0=De Caza
TTITLE1=La Hija Del Filibustero
TTITLE2=Nana
TTITLE3=Soy Borderline
TTITLE4=De Caza (Video)
EXTD=
EXTT0=
EXTT1=
EXTT2=
EXTT3=
EXTT4=
PLAYORDER=
